<?xml version="1.0" encoding="iso-8859-1"?>
<!-- Generator: Adobe Illustrator 18.1.1, SVG Export Plug-In . SVG Version: 6.00 Build 0)  -->
<svg version="1.1" id="Capa_1" xmlns="http://www.w3.org/2000/svg" xmlns:xlink="http://www.w3.org/1999/xlink" x="0px" y="0px"
	 viewBox="0 0 26.901 26.901" style="enable-background:new 0 0 26.901 26.901;" xml:space="preserve">
<g>
	<path d="M19.802,18.762V1.623C19.802,0.729,19.076,0,18.181,0H1.968C1.075,0,0.349,0.729,0.349,1.623v17.139
		c0,0.896,0.726,1.621,1.619,1.621h16.213C19.076,20.383,19.802,19.658,19.802,18.762z M17.828,17.023
		c0,0.715-0.58,1.293-1.291,1.293H3.616c-0.715,0-1.292-0.578-1.292-1.293V3.361c0-0.711,0.577-1.293,1.292-1.293h12.921
		c0.711,0,1.291,0.582,1.291,1.293V17.023z"/>
	<path d="M24.933,6.516h-3.044v2.07h1.399c0.711,0,1.291,0.58,1.291,1.291v13.662c0,0.715-0.58,1.293-1.291,1.293H10.367
		c-0.715,0-1.291-0.578-1.291-1.293v-1.4H7.101v3.139c0,0.896,0.724,1.623,1.619,1.623h16.213c0.893,0,1.619-0.727,1.619-1.623
		V8.137C26.552,7.244,25.826,6.516,24.933,6.516z"/>
	<g>
	</g>
	<g>
	</g>
	<g>
	</g>
	<g>
	</g>
	<g>
	</g>
	<g>
	</g>
	<g>
	</g>
	<g>
	</g>
	<g>
	</g>
	<g>
	</g>
	<g>
	</g>
	<g>
	</g>
	<g>
	</g>
	<g>
	</g>
	<g>
	</g>
</g>
<g>
</g>
<g>
</g>
<g>
</g>
<g>
</g>
<g>
</g>
<g>
</g>
<g>
</g>
<g>
</g>
<g>
</g>
<g>
</g>
<g>
</g>
<g>
</g>
<g>
</g>
<g>
</g>
<g>
</g>
</svg>
